<mxfile host="app.diagrams.net" modified="2022-07-07T08:09:45.906Z" agent="5.0 (Windows NT 10.0; Win64; x64) AppleWebKit/537.36 (KHTML, like Gecko) Chrome/103.0.0.0 Safari/537.36" etag="sqM_KXpU9GZR34Jbb5tH" version="20.0.4" type="github">
  <diagram name="Page-1" id="bfe91b75-5d2c-26a0-9c1d-138518896778">
    <mxGraphModel dx="2773" dy="941" grid="1" gridSize="10" guides="1" tooltips="1" connect="1" arrows="1" fold="1" page="1" pageScale="1" pageWidth="1100" pageHeight="850" background="none" math="0" shadow="0">
      <root>
        <mxCell id="0" />
        <mxCell id="1" parent="0" />
        <mxCell id="uh_vPkytdd0RdtmT2PiO-6" style="edgeStyle=orthogonalEdgeStyle;rounded=0;orthogonalLoop=1;jettySize=auto;html=1;" edge="1" parent="1" source="uh_vPkytdd0RdtmT2PiO-1" target="uh_vPkytdd0RdtmT2PiO-3">
          <mxGeometry relative="1" as="geometry" />
        </mxCell>
        <mxCell id="uh_vPkytdd0RdtmT2PiO-1" value="&lt;font color=&quot;#000000&quot;&gt;运营商ISP&lt;/font&gt;" style="fontColor=#0066CC;verticalAlign=top;verticalLabelPosition=bottom;labelPosition=center;align=center;html=1;outlineConnect=0;fillColor=#CCCCCC;strokeColor=#6881B3;gradientColor=none;gradientDirection=north;strokeWidth=2;shape=mxgraph.networks.business_center;" vertex="1" parent="1">
          <mxGeometry x="350" y="120" width="90" height="100" as="geometry" />
        </mxCell>
        <mxCell id="uh_vPkytdd0RdtmT2PiO-11" style="edgeStyle=orthogonalEdgeStyle;rounded=0;orthogonalLoop=1;jettySize=auto;html=1;" edge="1" parent="1" source="uh_vPkytdd0RdtmT2PiO-3" target="uh_vPkytdd0RdtmT2PiO-7">
          <mxGeometry relative="1" as="geometry" />
        </mxCell>
        <mxCell id="uh_vPkytdd0RdtmT2PiO-3" value="&lt;font color=&quot;#000000&quot;&gt;光猫（调制解调器）&lt;/font&gt;" style="fontColor=#0066CC;verticalAlign=top;verticalLabelPosition=bottom;labelPosition=center;align=center;html=1;outlineConnect=0;fillColor=#CCCCCC;strokeColor=#6881B3;gradientColor=none;gradientDirection=north;strokeWidth=2;shape=mxgraph.networks.router;" vertex="1" parent="1">
          <mxGeometry x="345" y="290" width="100" height="30" as="geometry" />
        </mxCell>
        <mxCell id="uh_vPkytdd0RdtmT2PiO-12" style="edgeStyle=orthogonalEdgeStyle;rounded=0;orthogonalLoop=1;jettySize=auto;html=1;" edge="1" parent="1" source="uh_vPkytdd0RdtmT2PiO-7" target="uh_vPkytdd0RdtmT2PiO-10">
          <mxGeometry relative="1" as="geometry" />
        </mxCell>
        <mxCell id="uh_vPkytdd0RdtmT2PiO-7" value="&lt;font color=&quot;#000000&quot;&gt;无线路由器&lt;br&gt;AC模式&lt;/font&gt;" style="fontColor=#0066CC;verticalAlign=top;verticalLabelPosition=bottom;labelPosition=center;align=center;html=1;outlineConnect=0;fillColor=#CCCCCC;strokeColor=#6881B3;gradientColor=none;gradientDirection=north;strokeWidth=2;shape=mxgraph.networks.wireless_modem;" vertex="1" parent="1">
          <mxGeometry x="345" y="396" width="100" height="85" as="geometry" />
        </mxCell>
        <mxCell id="uh_vPkytdd0RdtmT2PiO-15" style="edgeStyle=orthogonalEdgeStyle;rounded=0;orthogonalLoop=1;jettySize=auto;html=1;" edge="1" parent="1" source="uh_vPkytdd0RdtmT2PiO-10" target="uh_vPkytdd0RdtmT2PiO-13">
          <mxGeometry relative="1" as="geometry">
            <Array as="points">
              <mxPoint x="395" y="680" />
              <mxPoint x="190" y="680" />
            </Array>
          </mxGeometry>
        </mxCell>
        <mxCell id="uh_vPkytdd0RdtmT2PiO-16" style="edgeStyle=orthogonalEdgeStyle;rounded=0;orthogonalLoop=1;jettySize=auto;html=1;" edge="1" parent="1" source="uh_vPkytdd0RdtmT2PiO-10" target="uh_vPkytdd0RdtmT2PiO-14">
          <mxGeometry relative="1" as="geometry" />
        </mxCell>
        <mxCell id="uh_vPkytdd0RdtmT2PiO-18" style="edgeStyle=orthogonalEdgeStyle;rounded=0;orthogonalLoop=1;jettySize=auto;html=1;fontColor=#000000;" edge="1" parent="1" source="uh_vPkytdd0RdtmT2PiO-10" target="uh_vPkytdd0RdtmT2PiO-17">
          <mxGeometry relative="1" as="geometry">
            <Array as="points">
              <mxPoint x="395" y="680" />
              <mxPoint x="559" y="680" />
            </Array>
          </mxGeometry>
        </mxCell>
        <mxCell id="uh_vPkytdd0RdtmT2PiO-41" style="edgeStyle=orthogonalEdgeStyle;rounded=0;orthogonalLoop=1;jettySize=auto;html=1;entryX=0.5;entryY=0;entryDx=0;entryDy=0;fontColor=#000000;" edge="1" parent="1" source="uh_vPkytdd0RdtmT2PiO-10" target="uh_vPkytdd0RdtmT2PiO-30">
          <mxGeometry relative="1" as="geometry">
            <Array as="points">
              <mxPoint x="395" y="680" />
              <mxPoint x="728" y="680" />
            </Array>
          </mxGeometry>
        </mxCell>
        <mxCell id="uh_vPkytdd0RdtmT2PiO-10" value="&lt;font color=&quot;#000000&quot;&gt;交换机&lt;/font&gt;" style="fontColor=#0066CC;verticalAlign=top;verticalLabelPosition=bottom;labelPosition=center;align=center;html=1;outlineConnect=0;fillColor=#CCCCCC;strokeColor=#6881B3;gradientColor=none;gradientDirection=north;strokeWidth=2;shape=mxgraph.networks.switch;" vertex="1" parent="1">
          <mxGeometry x="345" y="600" width="100" height="30" as="geometry" />
        </mxCell>
        <mxCell id="uh_vPkytdd0RdtmT2PiO-13" value="&lt;font color=&quot;#000000&quot;&gt;软路由&lt;/font&gt;" style="fontColor=#0066CC;verticalAlign=top;verticalLabelPosition=bottom;labelPosition=center;align=center;html=1;outlineConnect=0;fillColor=#CCCCCC;strokeColor=#6881B3;gradientColor=none;gradientDirection=north;strokeWidth=2;shape=mxgraph.networks.wireless_modem;" vertex="1" parent="1">
          <mxGeometry x="140" y="748" width="100" height="85" as="geometry" />
        </mxCell>
        <mxCell id="uh_vPkytdd0RdtmT2PiO-14" value="NAS" style="sketch=0;pointerEvents=1;shadow=0;dashed=0;html=1;strokeColor=none;fillColor=#B3B3B3;labelPosition=center;verticalLabelPosition=bottom;verticalAlign=top;align=center;outlineConnect=0;shape=mxgraph.veeam2.nas;" vertex="1" parent="1">
          <mxGeometry x="360" y="760" width="70" height="70" as="geometry" />
        </mxCell>
        <mxCell id="uh_vPkytdd0RdtmT2PiO-17" value="HomeAssistant" style="shape=image;html=1;verticalAlign=top;verticalLabelPosition=bottom;labelBackgroundColor=#ffffff;imageAspect=0;aspect=fixed;image=https://cdn1.iconfinder.com/data/icons/fruit-136/64/Fruit_iconfree_Filled_Outline_raspberry-healthy-organic-food-fruit_icon-128.png;fontColor=#000000;fillColor=#B3B3B3;" vertex="1" parent="1">
          <mxGeometry x="520" y="758" width="78" height="78" as="geometry" />
        </mxCell>
        <mxCell id="uh_vPkytdd0RdtmT2PiO-22" value="iphone" style="fontColor=#0066CC;verticalAlign=top;verticalLabelPosition=bottom;labelPosition=center;align=center;html=1;outlineConnect=0;fillColor=#CCCCCC;strokeColor=#6881B3;gradientColor=none;gradientDirection=north;strokeWidth=2;shape=mxgraph.networks.mobile;" vertex="1" parent="1">
          <mxGeometry x="-124" y="670" width="30" height="60" as="geometry" />
        </mxCell>
        <mxCell id="uh_vPkytdd0RdtmT2PiO-23" value="window" style="fontColor=#0066CC;verticalAlign=top;verticalLabelPosition=bottom;labelPosition=center;align=center;html=1;outlineConnect=0;fillColor=#CCCCCC;strokeColor=#6881B3;gradientColor=none;gradientDirection=north;strokeWidth=2;shape=mxgraph.networks.laptop;" vertex="1" parent="1">
          <mxGeometry x="-140.82" y="770" width="63.64" height="35" as="geometry" />
        </mxCell>
        <mxCell id="uh_vPkytdd0RdtmT2PiO-27" value="ipad" style="fontColor=#0066CC;verticalAlign=top;verticalLabelPosition=bottom;labelPosition=center;align=center;html=1;outlineConnect=0;fillColor=#CCCCCC;strokeColor=#6881B3;gradientColor=none;gradientDirection=north;strokeWidth=2;shape=mxgraph.networks.tablet;" vertex="1" parent="1">
          <mxGeometry x="-145.82" y="910" width="71.43" height="50" as="geometry" />
        </mxCell>
        <mxCell id="uh_vPkytdd0RdtmT2PiO-28" value="" style="html=1;outlineConnect=0;fillColor=#CCCCCC;strokeColor=#6881B3;gradientColor=none;gradientDirection=north;strokeWidth=2;shape=mxgraph.networks.comm_link_edge;html=1;rounded=0;fontColor=#000000;" edge="1" parent="1">
          <mxGeometry width="100" height="100" relative="1" as="geometry">
            <mxPoint x="-30" y="845" as="sourcePoint" />
            <mxPoint x="100" y="770" as="targetPoint" />
          </mxGeometry>
        </mxCell>
        <mxCell id="uh_vPkytdd0RdtmT2PiO-29" value="mac air" style="fontColor=#0066CC;verticalAlign=top;verticalLabelPosition=bottom;labelPosition=center;align=center;html=1;outlineConnect=0;fillColor=#CCCCCC;strokeColor=#6881B3;gradientColor=none;gradientDirection=north;strokeWidth=2;shape=mxgraph.networks.laptop;" vertex="1" parent="1">
          <mxGeometry x="-140.82" y="837" width="63.64" height="35" as="geometry" />
        </mxCell>
        <mxCell id="uh_vPkytdd0RdtmT2PiO-40" value="" style="group" vertex="1" connectable="0" parent="1">
          <mxGeometry x="690" y="754" width="130" height="135" as="geometry" />
        </mxCell>
        <mxCell id="uh_vPkytdd0RdtmT2PiO-37" value="" style="group" vertex="1" connectable="0" parent="uh_vPkytdd0RdtmT2PiO-40">
          <mxGeometry width="118.91472868217053" height="112.82142857142857" as="geometry" />
        </mxCell>
        <mxCell id="uh_vPkytdd0RdtmT2PiO-30" value="" style="shape=image;html=1;verticalAlign=top;verticalLabelPosition=bottom;labelBackgroundColor=#ffffff;imageAspect=0;aspect=fixed;image=https://cdn1.iconfinder.com/data/icons/fruit-136/64/Fruit_iconfree_Filled_Outline_raspberry-healthy-organic-food-fruit_icon-128.png;fontColor=#000000;fillColor=#B3B3B3;" vertex="1" parent="uh_vPkytdd0RdtmT2PiO-37">
          <mxGeometry width="75.2124636627907" height="75.2124636627907" as="geometry" />
        </mxCell>
        <mxCell id="uh_vPkytdd0RdtmT2PiO-32" value="" style="shape=image;html=1;verticalAlign=top;verticalLabelPosition=bottom;labelBackgroundColor=#ffffff;imageAspect=0;aspect=fixed;image=https://cdn1.iconfinder.com/data/icons/fruit-136/64/Fruit_iconfree_Filled_Outline_raspberry-healthy-organic-food-fruit_icon-128.png;fontColor=#000000;fillColor=#B3B3B3;" vertex="1" parent="uh_vPkytdd0RdtmT2PiO-37">
          <mxGeometry x="20.15503875968992" y="20.250000000000004" width="75.2124636627907" height="75.2124636627907" as="geometry" />
        </mxCell>
        <mxCell id="uh_vPkytdd0RdtmT2PiO-31" value="" style="shape=image;html=1;verticalAlign=top;verticalLabelPosition=bottom;labelBackgroundColor=#ffffff;imageAspect=0;aspect=fixed;image=https://cdn1.iconfinder.com/data/icons/fruit-136/64/Fruit_iconfree_Filled_Outline_raspberry-healthy-organic-food-fruit_icon-128.png;fontColor=#000000;fillColor=#B3B3B3;" vertex="1" parent="uh_vPkytdd0RdtmT2PiO-37">
          <mxGeometry x="40.31007751937984" y="37.60714285714286" width="75.2124636627907" height="75.2124636627907" as="geometry" />
        </mxCell>
        <mxCell id="uh_vPkytdd0RdtmT2PiO-39" value="&lt;span style=&quot;background-color: rgb(255, 255, 255);&quot;&gt;Raspberry K3S 集群&lt;/span&gt;" style="text;html=1;strokeColor=none;fillColor=none;align=center;verticalAlign=middle;whiteSpace=wrap;rounded=0;fontColor=#000000;" vertex="1" parent="uh_vPkytdd0RdtmT2PiO-40">
          <mxGeometry x="9.069767441860463" y="106.07142857142857" width="120.93023255813954" height="28.928571428571427" as="geometry" />
        </mxCell>
        <mxCell id="uh_vPkytdd0RdtmT2PiO-42" value="" style="html=1;outlineConnect=0;fillColor=#CCCCCC;strokeColor=#6881B3;gradientColor=none;gradientDirection=north;strokeWidth=2;shape=mxgraph.networks.comm_link_edge;html=1;rounded=0;fontColor=#000000;" edge="1" parent="1">
          <mxGeometry width="100" height="100" relative="1" as="geometry">
            <mxPoint x="494" y="1008" as="sourcePoint" />
            <mxPoint x="573.9999999999995" y="880" as="targetPoint" />
          </mxGeometry>
        </mxCell>
        <mxCell id="uh_vPkytdd0RdtmT2PiO-44" value="&lt;font style=&quot;font-size: 16px;&quot;&gt;灯&lt;/font&gt;" style="html=1;verticalLabelPosition=bottom;align=center;labelBackgroundColor=#ffffff;verticalAlign=top;strokeWidth=2;strokeColor=#0080F0;shadow=0;dashed=0;shape=mxgraph.ios7.icons.lightbulb;fontColor=#000000;fillColor=#B3B3B3;" vertex="1" parent="1">
          <mxGeometry x="404.2" y="1060" width="42.8" height="55.75" as="geometry" />
        </mxCell>
        <mxCell id="uh_vPkytdd0RdtmT2PiO-45" value="&lt;font style=&quot;font-size: 16px;&quot;&gt;开关&lt;/font&gt;" style="html=1;strokeWidth=1;shadow=0;dashed=0;shape=mxgraph.ios7.misc.switch;fillColor=#8F8E94;strokeColor=none;buttonText=;strokeColor2=#222222;fontColor=#222222;fontSize=8;verticalLabelPosition=bottom;verticalAlign=top;align=center;sketch=0;" vertex="1" parent="1">
          <mxGeometry x="510" y="1060" width="50" height="50" as="geometry" />
        </mxCell>
        <mxCell id="uh_vPkytdd0RdtmT2PiO-46" value="&lt;font style=&quot;font-size: 16px;&quot; color=&quot;#000000&quot;&gt;传感器&lt;/font&gt;" style="aspect=fixed;perimeter=ellipsePerimeter;html=1;align=center;shadow=0;dashed=0;fontColor=#4277BB;labelBackgroundColor=#ffffff;fontSize=12;spacingTop=3;image;image=img/lib/ibm/users/sensor.svg;fillColor=#B3B3B3;" vertex="1" parent="1">
          <mxGeometry x="610" y="1060" width="60" height="60" as="geometry" />
        </mxCell>
      </root>
    </mxGraphModel>
  </diagram>
</mxfile>
